<svg xmlns="http://www.w3.org/2000/svg" viewBox="0 0 340.0 50.76" width="340.0" height="50.76"><g fill="#000000"><path d="M64.99 30.22L64.99 41.40L61.07 41.40L61.07 18.09L64.99 18.09L64.99 28.71L76.70 28.71L76.70 18.09L80.62 18.09L80.62 41.40L76.70 41.40L76.70 30.22Z"/><path d="M98.16 41.40Q97.46 41.05 96.97 40.41Q96.49 39.77 96.49 38.94Q95.86 39.41 95.25 39.92Q94.64 40.43 93.93 40.85Q93.22 41.26 92.35 41.52Q91.48 41.79 90.34 41.79Q89.28 41.79 88.43 41.44Q87.58 41.10 86.99 40.50Q86.40 39.91 86.07 39.08Q85.75 38.25 85.75 37.30Q85.75 36.14 86.21 35.21Q86.66 34.28 87.46 33.55Q88.26 32.82 89.32 32.25Q90.37 31.68 91.57 31.23Q92.76 30.78 94.03 30.43Q95.29 30.08 96.49 29.78L96.49 28.66Q96.49 27.43 96.31 26.58Q96.14 25.74 95.77 25.22Q95.40 24.70 94.83 24.48Q94.26 24.26 93.46 24.26Q92.71 24.26 92.08 24.56Q91.44 24.86 90.96 25.36Q90.48 25.86 90.17 26.54Q89.86 27.21 89.76 27.97L86.49 27.97Q86.63 26.81 87.29 25.90Q87.95 24.98 88.95 24.36Q89.95 23.73 91.22 23.40Q92.50 23.07 93.87 23.07Q95.63 23.07 96.82 23.41Q98.02 23.75 98.74 24.37Q99.46 24.98 99.77 25.87Q100.07 26.76 100.07 27.83L100.07 38.94Q100.07 39.77 100.56 40.41Q101.04 41.05 101.74 41.40ZM96.49 30.92Q95.71 31.17 94.89 31.49Q94.06 31.80 93.27 32.20Q92.48 32.59 91.76 33.05Q91.04 33.51 90.49 34.03Q89.95 34.56 89.63 35.14Q89.32 35.72 89.32 36.36Q89.32 37.02 89.56 37.61Q89.81 38.20 90.21 38.65Q90.62 39.10 91.14 39.35Q91.67 39.61 92.23 39.61Q92.83 39.61 93.38 39.45Q93.92 39.29 94.43 39.02Q94.94 38.75 95.45 38.39Q95.96 38.04 96.49 37.64Z"/><path d="M105.86 15.23L108.39 14.22L109.44 14.22L109.44 26.79Q109.88 26.04 110.59 25.35Q111.31 24.67 112.14 24.16Q112.98 23.66 113.88 23.36Q114.79 23.07 115.61 23.07Q117.18 23.07 118.50 23.70Q119.81 24.33 120.76 25.42Q121.71 26.51 122.25 27.96Q122.79 29.41 122.79 31.06Q122.79 33.30 122.00 35.25Q121.22 37.20 119.86 38.65Q118.50 40.10 116.67 40.94Q114.84 41.79 112.77 41.79Q110.76 41.79 109.00 41.26Q107.23 40.73 105.86 39.66ZM109.44 38.46Q109.78 38.78 110.17 39.11Q110.57 39.45 111.06 39.72Q111.55 39.99 112.16 40.16Q112.77 40.33 113.52 40.33Q114.77 40.33 115.79 39.72Q116.81 39.11 117.54 38.03Q118.27 36.95 118.66 35.47Q119.06 33.98 119.06 32.22Q119.06 30.89 118.65 29.72Q118.23 28.55 117.52 27.68Q116.81 26.81 115.85 26.31Q114.89 25.81 113.80 25.81Q113.19 25.81 112.55 25.98Q111.90 26.16 111.32 26.46Q110.74 26.76 110.25 27.15Q109.76 27.55 109.44 28.01Z"/><path d="M128.16 24.09L130.68 23.07L131.71 23.07L131.71 41.40L128.16 41.40ZM127.88 16.51Q127.88 16.09 128.04 15.72Q128.20 15.35 128.48 15.07Q128.76 14.79 129.13 14.63Q129.50 14.47 129.92 14.47Q130.34 14.47 130.71 14.63Q131.08 14.79 131.36 15.07Q131.64 15.35 131.80 15.72Q131.96 16.09 131.96 16.51Q131.96 16.93 131.80 17.30Q131.64 17.67 131.36 17.95Q131.08 18.23 130.71 18.39Q130.34 18.55 129.92 18.55Q129.50 18.55 129.13 18.39Q128.76 18.23 128.48 17.95Q128.20 17.67 128.04 17.30Q127.88 16.93 127.88 16.51Z"/><path d="M142.07 17.28L143.09 17.28L143.09 23.40L147.10 23.40L147.10 24.93L143.09 24.93L143.09 37.60Q143.09 38.01 143.24 38.36Q143.39 38.71 143.64 38.97Q143.90 39.24 144.25 39.39Q144.60 39.54 145.02 39.54Q145.62 39.54 146.11 39.24Q146.60 38.94 146.97 38.50L147.87 39.10Q147.13 40.35 145.95 41.07Q144.78 41.79 143.04 41.79Q142.14 41.79 141.47 41.48Q140.80 41.17 140.37 40.62Q139.94 40.06 139.73 39.30Q139.52 38.53 139.52 37.60L139.52 24.93L136.39 24.93L136.39 24.26L139.52 23.40L139.52 18.28Z"/><path d="M163.78 41.40Q163.07 41.05 162.59 40.41Q162.11 39.77 162.11 38.94Q161.47 39.41 160.87 39.92Q160.26 40.43 159.55 40.85Q158.84 41.26 157.97 41.52Q157.10 41.79 155.96 41.79Q154.90 41.79 154.05 41.44Q153.20 41.10 152.61 40.50Q152.02 39.91 151.69 39.08Q151.37 38.25 151.37 37.30Q151.37 36.14 151.82 35.21Q152.28 34.28 153.08 33.55Q153.88 32.82 154.94 32.25Q155.99 31.68 157.19 31.23Q158.38 30.78 159.65 30.43Q160.91 30.08 162.11 29.78L162.11 28.66Q162.11 27.43 161.93 26.58Q161.76 25.74 161.39 25.22Q161.02 24.70 160.45 24.48Q159.88 24.26 159.08 24.26Q158.33 24.26 157.70 24.56Q157.06 24.86 156.58 25.36Q156.10 25.86 155.79 26.54Q155.48 27.21 155.38 27.97L152.11 27.97Q152.25 26.81 152.91 25.90Q153.56 24.98 154.57 24.36Q155.57 23.73 156.84 23.40Q158.12 23.07 159.49 23.07Q161.25 23.07 162.44 23.41Q163.64 23.75 164.36 24.37Q165.08 24.98 165.39 25.87Q165.69 26.76 165.69 27.83L165.69 38.94Q165.69 39.77 166.18 40.41Q166.66 41.05 167.36 41.40ZM162.11 30.92Q161.33 31.17 160.51 31.49Q159.68 31.80 158.89 32.20Q158.10 32.59 157.38 33.05Q156.66 33.51 156.11 34.03Q155.57 34.56 155.25 35.14Q154.94 35.72 154.94 36.36Q154.94 37.02 155.18 37.61Q155.43 38.20 155.83 38.65Q156.24 39.10 156.76 39.35Q157.29 39.61 157.85 39.61Q158.45 39.61 159.00 39.45Q159.54 39.29 160.05 39.02Q160.56 38.75 161.07 38.39Q161.58 38.04 162.11 37.64Z"/><path d="M183.29 28.46Q183.10 27.76 182.76 27.04Q182.43 26.32 181.91 25.73Q181.39 25.14 180.69 24.77Q179.98 24.40 179.04 24.40Q177.82 24.40 176.86 24.89Q175.89 25.39 175.22 26.23Q174.55 27.07 174.20 28.20Q173.85 29.32 173.85 30.59Q173.85 32.31 174.30 33.85Q174.75 35.39 175.56 36.55Q176.38 37.71 177.53 38.39Q178.68 39.06 180.11 39.06Q181.36 39.06 182.28 38.67Q183.20 38.27 183.88 37.60Q184.55 36.94 185.05 36.05Q185.54 35.16 185.93 34.18L187.00 34.61Q186.54 36.30 185.77 37.64Q184.99 38.97 183.95 39.90Q182.90 40.82 181.59 41.30Q180.28 41.79 178.75 41.79Q176.98 41.79 175.43 41.09Q173.88 40.40 172.74 39.19Q171.60 37.97 170.93 36.36Q170.26 34.74 170.26 32.89Q170.26 31.54 170.60 30.28Q170.93 29.02 171.54 27.94Q172.14 26.85 173.00 25.95Q173.85 25.05 174.89 24.41Q175.92 23.77 177.11 23.42Q178.30 23.07 179.58 23.07Q180.65 23.07 181.64 23.31Q182.62 23.56 183.45 24.01Q184.27 24.45 184.91 25.11Q185.54 25.77 185.89 26.58Z"/><path d="M192.34 24.09L194.86 23.07L195.89 23.07L195.89 41.40L192.34 41.40ZM192.06 16.51Q192.06 16.09 192.22 15.72Q192.38 15.35 192.66 15.07Q192.94 14.79 193.31 14.63Q193.68 14.47 194.10 14.47Q194.52 14.47 194.89 14.63Q195.26 14.79 195.54 15.07Q195.82 15.35 195.98 15.72Q196.14 16.09 196.14 16.51Q196.14 16.93 195.98 17.30Q195.82 17.67 195.54 17.95Q195.26 18.23 194.89 18.39Q194.52 18.55 194.10 18.55Q193.68 18.55 193.31 18.39Q192.94 18.23 192.66 17.95Q192.38 17.67 192.22 17.30Q192.06 16.93 192.06 16.51Z"/><path d="M210.76 41.79Q208.69 41.79 206.95 41.07Q205.21 40.35 203.94 39.11Q202.68 37.87 201.97 36.21Q201.25 34.54 201.25 32.65Q201.25 30.66 201.97 28.91Q202.68 27.16 203.94 25.86Q205.21 24.56 206.95 23.81Q208.69 23.07 210.76 23.07Q212.82 23.07 214.55 23.75Q216.28 24.44 217.55 25.63Q218.81 26.83 219.53 28.44Q220.24 30.04 220.24 31.89Q220.24 33.93 219.53 35.73Q218.81 37.53 217.55 38.88Q216.28 40.22 214.55 41.00Q212.82 41.79 210.76 41.79ZM211.45 40.47Q212.50 40.47 213.38 39.92Q214.26 39.38 214.89 38.46Q215.53 37.53 215.88 36.32Q216.23 35.11 216.23 33.75Q216.23 31.80 215.90 30.10Q215.56 28.39 214.81 27.13Q214.05 25.86 212.84 25.13Q211.62 24.40 209.88 24.40Q208.99 24.40 208.14 24.92Q207.30 25.44 206.66 26.34Q206.02 27.23 205.63 28.44Q205.24 29.64 205.24 30.99Q205.24 32.96 205.66 34.69Q206.07 36.41 206.87 37.69Q207.67 38.97 208.82 39.72Q209.97 40.47 211.45 40.47Z"/><path d="M227.88 23.07L228.90 23.07L228.90 26.70Q230.54 24.88 232.30 23.97Q234.05 23.07 235.87 23.07Q236.81 23.07 237.63 23.49Q238.45 23.91 239.06 24.65Q239.68 25.39 240.03 26.38Q240.38 27.37 240.38 28.50L240.38 41.40L236.81 41.40L236.81 29.11Q236.81 28.22 236.60 27.54Q236.39 26.86 236.01 26.41Q235.62 25.95 235.10 25.71Q234.58 25.47 233.95 25.47Q233.39 25.47 232.75 25.67Q232.12 25.86 231.46 26.20Q230.80 26.55 230.15 27.02Q229.50 27.50 228.90 28.08L228.90 41.40L225.32 41.40L225.32 24.07Z"/><path d="M254.32 41.79Q252.49 41.79 250.89 41.10Q249.28 40.42 248.08 39.24Q246.89 38.06 246.19 36.47Q245.50 34.88 245.50 33.09Q245.50 30.92 246.13 29.09Q246.76 27.25 247.92 25.91Q249.08 24.58 250.71 23.82Q252.34 23.07 254.34 23.07Q256.10 23.07 257.57 23.69Q259.05 24.31 260.11 25.36Q261.18 26.41 261.77 27.78Q262.36 29.15 262.36 30.64L248.94 30.64Q248.94 32.45 249.41 34.00Q249.88 35.55 250.72 36.67Q251.56 37.80 252.72 38.43Q253.88 39.06 255.27 39.06Q256.43 39.06 257.50 38.68Q258.58 38.31 259.45 37.69Q260.32 37.08 260.93 36.28Q261.55 35.49 261.79 34.65L262.83 35.11Q262.44 36.50 261.58 37.71Q260.72 38.92 259.57 39.83Q258.42 40.73 257.06 41.26Q255.71 41.79 254.32 41.79ZM257.87 29.20Q257.87 28.18 257.51 27.30Q257.15 26.42 256.52 25.78Q255.89 25.14 255.04 24.77Q254.20 24.40 253.23 24.40Q252.42 24.40 251.69 24.76Q250.95 25.12 250.37 25.76Q249.79 26.41 249.41 27.28Q249.03 28.16 248.96 29.18Z"/><path d="M273.34 40.54Q274.06 40.54 274.68 40.32Q275.29 40.10 275.74 39.73Q276.19 39.36 276.44 38.88Q276.68 38.39 276.68 37.88Q276.68 37.06 276.27 36.44Q275.86 35.83 275.18 35.34Q274.50 34.86 273.64 34.46Q272.78 34.05 271.88 33.62Q270.99 33.19 270.12 32.71Q269.26 32.22 268.59 31.57Q267.91 30.92 267.50 30.07Q267.08 29.22 267.08 28.08Q267.08 27.00 267.54 26.08Q268.00 25.16 268.82 24.49Q269.63 23.82 270.76 23.44Q271.88 23.07 273.22 23.07Q274.12 23.07 274.89 23.19Q275.66 23.31 276.41 23.66Q277.16 24.02 277.89 24.67Q278.63 25.33 279.46 26.39L278.14 27.57Q277.12 25.90 275.86 25.08Q274.61 24.26 273.18 24.26Q272.41 24.26 271.78 24.45Q271.14 24.63 270.70 24.96Q270.25 25.28 269.99 25.72Q269.74 26.16 269.74 26.65Q269.74 27.46 270.19 28.06Q270.63 28.66 271.37 29.14Q272.11 29.62 273.05 30.03Q273.99 30.43 274.97 30.85Q275.94 31.27 276.88 31.77Q277.82 32.26 278.56 32.90Q279.30 33.54 279.75 34.39Q280.20 35.23 280.20 36.36Q280.20 37.50 279.78 38.49Q279.35 39.48 278.50 40.21Q277.65 40.94 276.37 41.36Q275.08 41.79 273.34 41.79Q272.55 41.79 271.72 41.66Q270.88 41.54 270.04 41.18Q269.19 40.82 268.35 40.17Q267.51 39.52 266.70 38.46L268.16 37.15Q268.81 38.06 269.40 38.70Q270.00 39.34 270.63 39.76Q271.25 40.17 271.91 40.35Q272.57 40.54 273.34 40.54Z"/></g></svg>