<svg xmlns="http://www.w3.org/2000/svg" viewBox="0 0 1100.0 246.72" width="1100.0" height="246.72"><g fill="#000000"><path d="M65.88 46.84L65.88 52.27L43.89 52.27L43.89 110.40L28.33 110.40L28.33 52.27L6.30 52.27L6.30 46.84Z"/><path d="M104.59 77.63Q104.59 73.93 103.40 71.99Q102.20 70.04 100.28 70.04Q99.44 70.04 98.15 70.42Q96.86 70.79 95.41 71.49Q93.95 72.20 92.48 73.13Q91.00 74.07 89.73 75.20L89.73 110.40L75.02 110.40L75.02 43.27L85.38 37.93L89.73 37.93L89.73 66.29Q93.06 63.85 97.16 62.66Q101.27 61.46 105.20 61.46Q108.11 61.46 110.66 62.61Q113.22 63.76 115.12 65.75Q117.02 67.74 118.12 70.42Q119.22 73.09 119.22 76.09L119.22 110.40L104.59 110.40Z"/><path d="M154.70 111.48Q149.59 111.48 145.09 109.58Q140.59 107.68 137.27 104.47Q133.94 101.26 131.99 97.02Q130.05 92.77 130.05 88.04Q130.05 82.37 131.83 77.52Q133.61 72.67 136.89 69.10Q140.17 65.54 144.74 63.55Q149.31 61.56 154.94 61.56Q159.95 61.56 164.12 63.15Q168.30 64.74 171.27 67.51Q174.25 70.27 175.89 74.02Q177.53 77.77 177.53 82.04L144.30 82.04Q144.48 86.02 145.49 89.63Q146.50 93.24 148.19 95.99Q149.88 98.73 152.15 100.35Q154.42 101.96 157.19 101.96Q159.58 101.96 161.90 101.14Q164.22 100.32 166.19 98.89Q168.16 97.46 169.61 95.56Q171.06 93.67 171.72 91.46L179.12 92.63Q178.00 96.52 175.54 99.95Q173.08 103.37 169.77 105.95Q166.47 108.52 162.58 110.00Q158.69 111.48 154.70 111.48ZM160.84 77.07Q160.66 74.96 159.93 73.20Q159.20 71.45 158.08 70.18Q156.95 68.92 155.45 68.24Q153.95 67.56 152.22 67.56Q150.86 67.56 149.55 68.24Q148.23 68.92 147.18 70.16Q146.12 71.40 145.40 73.16Q144.67 74.92 144.44 77.07Z"/><path d="M219.20 46.84L240.20 90.76L259.70 46.84L269.69 46.84L241.09 111.34L233.83 111.34L203.08 46.84Z"/><path d="M298.89 111.48Q293.78 111.48 289.28 109.58Q284.78 107.68 281.45 104.47Q278.12 101.26 276.18 97.02Q274.23 92.77 274.23 88.04Q274.23 82.37 276.02 77.52Q277.80 72.67 281.08 69.10Q284.36 65.54 288.93 63.55Q293.50 61.56 299.12 61.56Q304.14 61.56 308.31 63.15Q312.48 64.74 315.46 67.51Q318.44 70.27 320.08 74.02Q321.72 77.77 321.72 82.04L288.48 82.04Q288.67 86.02 289.68 89.63Q290.69 93.24 292.38 95.99Q294.06 98.73 296.34 100.35Q298.61 101.96 301.38 101.96Q303.77 101.96 306.09 101.14Q308.41 100.32 310.38 98.89Q312.34 97.46 313.80 95.56Q315.25 93.67 315.91 91.46L323.31 92.63Q322.19 96.52 319.73 99.95Q317.27 103.37 313.96 105.95Q310.66 108.52 306.77 110.00Q302.88 111.48 298.89 111.48ZM305.03 77.07Q304.84 74.96 304.12 73.20Q303.39 71.45 302.27 70.18Q301.14 68.92 299.64 68.24Q298.14 67.56 296.41 67.56Q295.05 67.56 293.73 68.24Q292.42 68.92 291.37 70.16Q290.31 71.40 289.59 73.16Q288.86 74.92 288.62 77.07Z"/><path d="M338.78 96.99Q340.05 100.93 342.41 103.11Q344.78 105.29 348.34 105.29Q349.84 105.29 351.09 104.92Q352.33 104.54 353.24 103.86Q354.16 103.18 354.65 102.29Q355.14 101.40 355.14 100.37Q355.14 98.68 354.51 97.35Q353.88 96.01 352.75 94.93Q351.62 93.85 350.08 92.94Q348.53 92.02 346.75 91.23Q343.89 89.96 341.08 88.49Q338.27 87.01 336.02 85.11Q333.77 83.21 332.38 80.77Q331.00 78.34 331.00 75.15Q331.00 72.10 332.27 69.60Q333.53 67.09 335.83 65.31Q338.12 63.52 341.31 62.54Q344.50 61.56 348.34 61.56Q351.86 61.56 354.58 62.21Q357.30 62.87 359.36 64.09Q361.42 65.31 363.02 67.06Q364.61 68.82 365.88 71.02L357.44 73.93Q356.78 71.63 355.84 70.37Q354.91 69.10 353.88 68.47Q352.84 67.84 351.86 67.70Q350.88 67.56 350.12 67.56Q348.77 67.56 347.55 67.86Q346.33 68.17 345.39 68.73Q344.45 69.29 343.89 70.11Q343.33 70.93 343.33 72.01Q343.33 73.37 344.03 74.59Q344.73 75.81 346.00 76.86Q347.27 77.92 348.98 78.85Q350.69 79.79 352.70 80.63Q355.75 81.90 358.63 83.45Q361.52 84.99 363.77 86.94Q366.02 88.88 367.38 91.25Q368.73 93.62 368.73 96.52Q368.73 99.67 367.70 102.38Q366.67 105.10 364.35 107.12Q362.03 109.13 358.35 110.31Q354.67 111.48 349.42 111.48Q344.92 111.48 341.80 110.45Q338.69 109.42 336.53 107.80Q334.38 106.18 332.97 104.17Q331.56 102.15 330.48 100.18Z"/><path d="M384.11 96.99Q385.38 100.93 387.74 103.11Q390.11 105.29 393.67 105.29Q395.17 105.29 396.41 104.92Q397.66 104.54 398.57 103.86Q399.48 103.18 399.98 102.29Q400.47 101.40 400.47 100.37Q400.47 98.68 399.84 97.35Q399.20 96.01 398.08 94.93Q396.95 93.85 395.41 92.94Q393.86 92.02 392.08 91.23Q389.22 89.96 386.41 88.49Q383.59 87.01 381.34 85.11Q379.09 83.21 377.71 80.77Q376.33 78.34 376.33 75.15Q376.33 72.10 377.59 69.60Q378.86 67.09 381.16 65.31Q383.45 63.52 386.64 62.54Q389.83 61.56 393.67 61.56Q397.19 61.56 399.91 62.21Q402.62 62.87 404.69 64.09Q406.75 65.31 408.34 67.06Q409.94 68.82 411.20 71.02L402.77 73.93Q402.11 71.63 401.17 70.37Q400.23 69.10 399.20 68.47Q398.17 67.84 397.19 67.70Q396.20 67.56 395.45 67.56Q394.09 67.56 392.88 67.86Q391.66 68.17 390.72 68.73Q389.78 69.29 389.22 70.11Q388.66 70.93 388.66 72.01Q388.66 73.37 389.36 74.59Q390.06 75.81 391.33 76.86Q392.59 77.92 394.30 78.85Q396.02 79.79 398.03 80.63Q401.08 81.90 403.96 83.45Q406.84 84.99 409.09 86.94Q411.34 88.88 412.70 91.25Q414.06 93.62 414.06 96.52Q414.06 99.67 413.03 102.38Q412.00 105.10 409.68 107.12Q407.36 109.13 403.68 110.31Q400.00 111.48 394.75 111.48Q390.25 111.48 387.13 110.45Q384.02 109.42 381.86 107.80Q379.70 106.18 378.30 104.17Q376.89 102.15 375.81 100.18Z"/><path d="M425.64 121.74Q426.11 121.98 426.88 122.35Q427.66 122.73 428.57 123.06Q429.48 123.38 430.52 123.62Q431.55 123.85 432.58 123.85Q433.42 123.85 434.27 122.87Q435.11 121.88 435.86 120.57Q436.61 119.26 437.20 117.95Q437.78 116.63 438.06 116.02L442.23 106.98L418.84 62.40L434.22 62.40L449.36 91.13L462.77 62.40L473.03 62.40L446.50 120.20Q445.19 123.01 443.17 125.31Q441.16 127.60 438.77 129.22Q436.38 130.84 433.77 131.73Q431.17 132.62 428.64 132.62Q426.53 132.62 424.75 132.13Q422.97 131.63 421.66 130.65Z"/><path d="M495.20 110.40L480.72 110.40L480.72 43.27L490.84 37.93L495.20 37.93Z"/><path d="M506.17 121.04Q508.23 120.48 510.02 119.49Q511.80 118.51 513.13 117.27Q514.47 116.02 515.24 114.57Q516.02 113.12 516.02 111.67Q516.02 111.10 515.99 110.75Q515.97 110.40 515.92 110.40Q515.50 110.40 515.08 110.61Q514.66 110.82 514.16 111.10Q513.67 111.38 513.06 111.60Q512.45 111.81 511.70 111.81Q510.58 111.81 509.59 111.31Q508.61 110.82 507.84 109.98Q507.06 109.13 506.62 107.99Q506.17 106.84 506.17 105.48Q506.17 104.07 506.76 102.85Q507.34 101.63 508.33 100.74Q509.31 99.85 510.65 99.36Q511.98 98.87 513.53 98.87Q515.45 98.87 517.12 99.69Q518.78 100.51 520.02 101.94Q521.27 103.37 521.99 105.29Q522.72 107.21 522.72 109.37Q522.72 112.70 521.38 115.51Q520.05 118.32 517.77 120.41Q515.50 122.49 512.50 123.78Q509.50 125.07 506.17 125.26Z"/><path d="M41.17 218.95Q38.50 220.78 35.36 221.81Q32.22 222.84 29.17 222.84Q24.67 222.84 20.71 220.82Q16.75 218.81 13.80 215.41Q10.84 212.01 9.16 207.58Q7.47 203.15 7.47 198.32Q7.47 193.49 9.53 188.92Q11.59 184.35 15.18 180.79Q18.77 177.23 23.57 175.07Q28.38 172.92 33.86 172.92Q35.97 172.92 37.82 173.24Q39.67 173.57 41.17 174.13L41.17 154.63L51.30 149.29L55.66 149.29L55.66 221.76L41.17 221.76ZM41.17 189.13Q41.17 186.84 40.45 184.92Q39.72 182.99 38.52 181.61Q37.33 180.23 35.83 179.48Q34.33 178.73 32.83 178.73Q30.86 178.73 29.08 180.02Q27.30 181.31 25.96 183.58Q24.62 185.85 23.83 188.97Q23.03 192.09 23.03 195.74Q23.03 199.73 23.95 203.34Q24.86 206.95 26.41 209.69Q27.95 212.43 30.02 214.07Q32.08 215.71 34.42 215.71Q35.22 215.71 36.16 215.46Q37.09 215.20 38.01 214.73Q38.92 214.26 39.74 213.63Q40.56 212.99 41.17 212.20Z"/><path d="M93.58 222.65Q87.86 222.65 83.01 220.78Q78.16 218.90 74.62 215.62Q71.08 212.34 69.09 207.91Q67.09 203.48 67.09 198.32Q67.09 192.79 69.09 188.13Q71.08 183.46 74.59 180.09Q78.11 176.71 82.96 174.81Q87.81 172.92 93.53 172.92Q99.25 172.92 104.12 174.77Q109.00 176.62 112.54 179.85Q116.08 183.09 118.09 187.47Q120.11 191.85 120.11 196.92Q120.11 202.21 118.12 206.90Q116.12 211.59 112.59 215.08Q109.05 218.57 104.17 220.61Q99.30 222.65 93.58 222.65ZM95.27 216.79Q97.23 216.79 98.92 215.50Q100.61 214.21 101.85 212.03Q103.09 209.85 103.77 206.99Q104.45 204.13 104.45 201.04Q104.45 196.45 103.77 192.39Q103.09 188.34 101.55 185.29Q100.00 182.24 97.54 180.46Q95.08 178.68 91.52 178.68Q89.78 178.68 88.19 179.95Q86.59 181.21 85.38 183.35Q84.16 185.48 83.43 188.27Q82.70 191.06 82.70 194.15Q82.70 198.79 83.57 202.92Q84.44 207.04 86.05 210.11Q87.67 213.18 89.99 214.99Q92.31 216.79 95.27 216.79Z"/><path d="M160.42 188.99Q160.42 187.17 160.02 185.74Q159.62 184.31 158.95 183.35Q158.27 182.38 157.40 181.89Q156.53 181.40 155.59 181.40Q154.66 181.40 153.44 181.78Q152.22 182.15 150.88 182.83Q149.55 183.51 148.14 184.49Q146.73 185.48 145.47 186.70L145.47 221.76L130.84 221.76L130.84 178.12L141.11 172.78L145.47 172.78L145.47 177.65Q148.84 175.21 152.69 174.06Q156.53 172.92 160.33 172.92Q163.28 172.92 165.93 174.06Q168.58 175.21 170.57 177.18Q172.56 179.15 173.73 181.80Q174.91 184.45 174.91 187.45L174.91 221.76L160.42 221.76Z"/><path d="M218.97 218.95Q216.30 220.78 213.16 221.81Q210.02 222.84 206.97 222.84Q202.47 222.84 198.51 220.82Q194.55 218.81 191.59 215.41Q188.64 212.01 186.95 207.58Q185.27 203.15 185.27 198.32Q185.27 193.49 187.33 188.92Q189.39 184.35 192.98 180.79Q196.56 177.23 201.37 175.07Q206.17 172.92 211.66 172.92Q213.77 172.92 215.62 173.24Q217.47 173.57 218.97 174.13L218.97 154.63L229.09 149.29L233.45 149.29L233.45 221.76L218.97 221.76ZM218.97 189.13Q218.97 186.84 218.24 184.92Q217.52 182.99 216.32 181.61Q215.12 180.23 213.62 179.48Q212.12 178.73 210.62 178.73Q208.66 178.73 206.88 180.02Q205.09 181.31 203.76 183.58Q202.42 185.85 201.62 188.97Q200.83 192.09 200.83 195.74Q200.83 199.73 201.74 203.34Q202.66 206.95 204.20 209.69Q205.75 212.43 207.81 214.07Q209.88 215.71 212.22 215.71Q213.02 215.71 213.95 215.46Q214.89 215.20 215.80 214.73Q216.72 214.26 217.54 213.63Q218.36 212.99 218.97 212.20Z"/><path d="M269.55 222.84Q264.44 222.84 259.94 220.94Q255.44 219.04 252.11 215.83Q248.78 212.62 246.84 208.38Q244.89 204.13 244.89 199.40Q244.89 193.73 246.67 188.88Q248.45 184.03 251.73 180.46Q255.02 176.90 259.59 174.91Q264.16 172.92 269.78 172.92Q274.80 172.92 278.97 174.51Q283.14 176.10 286.12 178.87Q289.09 181.63 290.73 185.38Q292.38 189.13 292.38 193.40L259.14 193.40Q259.33 197.38 260.34 200.99Q261.34 204.60 263.03 207.35Q264.72 210.09 266.99 211.71Q269.27 213.32 272.03 213.32Q274.42 213.32 276.74 212.50Q279.06 211.68 281.03 210.25Q283.00 208.82 284.45 206.92Q285.91 205.03 286.56 202.82L293.97 203.99Q292.84 207.88 290.38 211.31Q287.92 214.73 284.62 217.31Q281.31 219.88 277.42 221.36Q273.53 222.84 269.55 222.84ZM275.69 188.43Q275.50 186.32 274.77 184.56Q274.05 182.81 272.92 181.54Q271.80 180.28 270.30 179.60Q268.80 178.92 267.06 178.92Q265.70 178.92 264.39 179.60Q263.08 180.28 262.02 181.52Q260.97 182.76 260.24 184.52Q259.52 186.28 259.28 188.43Z"/><path d="M336.25 218.95Q333.91 220.59 330.81 221.62Q327.72 222.65 323.27 222.65Q320.41 222.65 317.76 221.83Q315.11 221.01 312.81 219.51Q310.52 218.01 308.62 215.92Q306.72 213.84 305.38 211.31Q304.05 208.78 303.30 205.89Q302.55 203.01 302.55 199.96Q302.55 196.26 303.53 192.81Q304.52 189.37 306.27 186.35Q308.03 183.32 310.52 180.86Q313.00 178.40 316.02 176.62Q319.05 174.84 322.52 173.88Q325.98 172.92 329.73 172.92Q332.64 172.92 335.41 173.95Q338.17 174.98 340.75 177.42L344.92 173.76L350.78 173.76L350.78 241.96L336.25 241.96ZM327.77 213.32Q329.08 213.32 330.37 212.95Q331.66 212.57 332.78 211.99Q333.91 211.40 334.80 210.65Q335.69 209.90 336.25 209.20L336.25 185.81Q336.25 184.12 335.71 182.99Q335.17 181.87 334.47 181.07Q333.91 180.60 333.16 180.16Q332.41 179.71 331.63 179.38Q330.86 179.06 330.09 178.87Q329.31 178.68 328.61 178.68Q326.31 178.68 324.30 180.02Q322.28 181.35 320.80 183.63Q319.33 185.90 318.46 188.90Q317.59 191.90 317.59 195.23Q317.59 198.93 318.41 202.21Q319.23 205.49 320.62 207.96Q322.00 210.42 323.85 211.87Q325.70 213.32 327.77 213.32Z"/><path d="M378.95 173.76L378.95 207.60Q378.95 209.01 379.52 210.25Q380.08 211.49 381.04 212.41Q382.00 213.32 383.27 213.84Q384.53 214.35 385.98 214.35Q386.78 214.35 387.79 213.91Q388.80 213.46 389.85 212.67Q390.91 211.87 391.94 210.79Q392.97 209.71 393.77 208.45L393.77 173.76L408.30 173.76L408.30 221.76L393.77 221.76L393.77 217.31Q390.86 219.74 387.65 221.20Q384.44 222.65 381.34 222.65Q377.78 222.65 374.69 221.46Q371.59 220.26 369.32 218.22Q367.05 216.18 365.73 213.44Q364.42 210.70 364.42 207.60L364.42 173.76Z"/><path d="M423.30 178.12L433.52 172.78L437.88 172.78L437.88 221.76L423.30 221.76ZM422.69 157.03Q422.69 155.57 423.30 154.26Q423.91 152.95 424.98 152.01Q426.06 151.07 427.47 150.51Q428.88 149.95 430.52 149.95Q432.16 149.95 433.59 150.51Q435.02 151.07 436.07 152.01Q437.12 152.95 437.73 154.26Q438.34 155.57 438.34 157.03Q438.34 158.48 437.73 159.77Q437.12 161.06 436.07 161.99Q435.02 162.93 433.59 163.49Q432.16 164.06 430.52 164.06Q428.88 164.06 427.47 163.49Q426.06 162.93 424.98 161.99Q423.91 161.06 423.30 159.77Q422.69 158.48 422.69 157.03Z"/><path d="M473.45 222.84Q468.34 222.84 463.84 220.94Q459.34 219.04 456.02 215.83Q452.69 212.62 450.74 208.38Q448.80 204.13 448.80 199.40Q448.80 193.73 450.58 188.88Q452.36 184.03 455.64 180.46Q458.92 176.90 463.49 174.91Q468.06 172.92 473.69 172.92Q478.70 172.92 482.88 174.51Q487.05 176.10 490.02 178.87Q493.00 181.63 494.64 185.38Q496.28 189.13 496.28 193.40L463.05 193.40Q463.23 197.38 464.24 200.99Q465.25 204.60 466.94 207.35Q468.62 210.09 470.90 211.71Q473.17 213.32 475.94 213.32Q478.33 213.32 480.65 212.50Q482.97 211.68 484.94 210.25Q486.91 208.82 488.36 206.92Q489.81 205.03 490.47 202.82L497.88 203.99Q496.75 207.88 494.29 211.31Q491.83 214.73 488.52 217.31Q485.22 219.88 481.33 221.36Q477.44 222.84 473.45 222.84ZM479.59 188.43Q479.41 186.32 478.68 184.56Q477.95 182.81 476.83 181.54Q475.70 180.28 474.20 179.60Q472.70 178.92 470.97 178.92Q469.61 178.92 468.30 179.60Q466.98 180.28 465.93 181.52Q464.88 182.76 464.15 184.52Q463.42 186.28 463.19 188.43Z"/><path d="M540.06 183.84Q539.08 182.99 538.26 182.38Q537.44 181.78 536.64 181.40Q535.84 181.03 534.98 180.86Q534.11 180.70 533.03 180.70Q531.53 180.70 530.08 181.19Q528.62 181.68 527.36 182.55Q526.09 183.42 525.09 184.56Q524.08 185.71 523.52 187.03L523.52 221.76L508.98 221.76L508.98 178.12L519.16 172.78L523.52 177.46Q525.91 174.98 528.84 173.48Q531.77 171.98 535.00 171.98Q538.14 171.98 540.67 173.27Q543.20 174.56 545.08 176.10Z"/><path d="M573.44 197.01Q571.33 197.90 569.17 199.17Q567.02 200.43 565.30 202.00Q563.59 203.57 562.49 205.47Q561.39 207.37 561.39 209.53Q561.39 211.92 562.63 213.28Q563.88 214.63 565.98 214.63Q567.77 214.63 569.50 213.58Q571.23 212.53 573.44 210.84ZM546.81 185.95Q547.56 182.95 549.44 180.49Q551.31 178.03 554.10 176.31Q556.89 174.60 560.48 173.67Q564.06 172.73 568.23 172.73Q573.39 172.73 577.14 173.67Q580.89 174.60 583.30 176.31Q585.72 178.03 586.87 180.44Q588.02 182.85 588.02 185.85L588.02 213.32Q588.02 216.28 589.84 218.34Q591.67 220.40 595.00 221.76L577.75 221.76Q577.00 221.76 576.30 221.34Q575.59 220.92 575.03 220.24Q574.47 219.56 574.05 218.76Q573.62 217.96 573.44 217.21Q572.12 218.43 570.95 219.44Q569.78 220.45 568.38 221.15Q566.97 221.85 565.23 222.25Q563.50 222.65 561.06 222.65Q557.73 222.65 555.09 221.71Q552.44 220.78 550.59 219.11Q548.73 217.45 547.75 215.17Q546.77 212.90 546.77 210.23Q546.77 206.10 549.06 203.15Q551.36 200.20 555.13 197.99Q558.91 195.79 563.69 194.15Q568.47 192.51 573.44 191.01L573.44 186.32Q573.44 184.03 572.97 182.41Q572.50 180.79 571.66 179.78Q570.81 178.78 569.62 178.33Q568.42 177.88 566.97 177.88Q565.23 177.88 563.88 178.54Q562.52 179.20 561.53 180.32Q560.55 181.45 559.94 182.90Q559.33 184.35 559.05 185.95Z"/><path d="M653.92 218.95Q651.58 220.59 648.48 221.62Q645.39 222.65 640.94 222.65Q638.08 222.65 635.43 221.83Q632.78 221.01 630.48 219.51Q628.19 218.01 626.29 215.92Q624.39 213.84 623.05 211.31Q621.72 208.78 620.97 205.89Q620.22 203.01 620.22 199.96Q620.22 196.26 621.20 192.81Q622.19 189.37 623.95 186.35Q625.70 183.32 628.19 180.86Q630.67 178.40 633.70 176.62Q636.72 174.84 640.19 173.88Q643.66 172.92 647.41 172.92Q650.31 172.92 653.08 173.95Q655.84 174.98 658.42 177.42L662.59 173.76L668.45 173.76L668.45 241.96L653.92 241.96ZM645.44 213.32Q646.75 213.32 648.04 212.95Q649.33 212.57 650.45 211.99Q651.58 211.40 652.47 210.65Q653.36 209.90 653.92 209.20L653.92 185.81Q653.92 184.12 653.38 182.99Q652.84 181.87 652.14 181.07Q651.58 180.60 650.83 180.16Q650.08 179.71 649.30 179.38Q648.53 179.06 647.76 178.87Q646.98 178.68 646.28 178.68Q643.98 178.68 641.97 180.02Q639.95 181.35 638.48 183.63Q637.00 185.90 636.13 188.90Q635.27 191.90 635.27 195.23Q635.27 198.93 636.09 202.21Q636.91 205.49 638.29 207.96Q639.67 210.42 641.52 211.87Q643.38 213.32 645.44 213.32Z"/><path d="M696.62 173.76L696.62 207.60Q696.62 209.01 697.19 210.25Q697.75 211.49 698.71 212.41Q699.67 213.32 700.94 213.84Q702.20 214.35 703.66 214.35Q704.45 214.35 705.46 213.91Q706.47 213.46 707.52 212.67Q708.58 211.87 709.61 210.79Q710.64 209.71 711.44 208.45L711.44 173.76L725.97 173.76L725.97 221.76L711.44 221.76L711.44 217.31Q708.53 219.74 705.32 221.20Q702.11 222.65 699.02 222.65Q695.45 222.65 692.36 221.46Q689.27 220.26 686.99 218.22Q684.72 216.18 683.41 213.44Q682.09 210.70 682.09 207.60L682.09 173.76Z"/><path d="M761.92 222.84Q756.81 222.84 752.31 220.94Q747.81 219.04 744.48 215.83Q741.16 212.62 739.21 208.38Q737.27 204.13 737.27 199.40Q737.27 193.73 739.05 188.88Q740.83 184.03 744.11 180.46Q747.39 176.90 751.96 174.91Q756.53 172.92 762.16 172.92Q767.17 172.92 771.34 174.51Q775.52 176.10 778.49 178.87Q781.47 181.63 783.11 185.38Q784.75 189.13 784.75 193.40L751.52 193.40Q751.70 197.38 752.71 200.99Q753.72 204.60 755.41 207.35Q757.09 210.09 759.37 211.71Q761.64 213.32 764.41 213.32Q766.80 213.32 769.12 212.50Q771.44 211.68 773.41 210.25Q775.38 208.82 776.83 206.92Q778.28 205.03 778.94 202.82L786.34 203.99Q785.22 207.88 782.76 211.31Q780.30 214.73 776.99 217.31Q773.69 219.88 769.80 221.36Q765.91 222.84 761.92 222.84ZM768.06 188.43Q767.88 186.32 767.15 184.56Q766.42 182.81 765.30 181.54Q764.17 180.28 762.67 179.60Q761.17 178.92 759.44 178.92Q758.08 178.92 756.77 179.60Q755.45 180.28 754.40 181.52Q753.34 182.76 752.62 184.52Q751.89 186.28 751.66 188.43Z"/><path d="M838.23 222.84Q833.12 222.84 828.62 220.94Q824.12 219.04 820.80 215.83Q817.47 212.62 815.52 208.38Q813.58 204.13 813.58 199.40Q813.58 193.73 815.36 188.88Q817.14 184.03 820.42 180.46Q823.70 176.90 828.27 174.91Q832.84 172.92 838.47 172.92Q843.48 172.92 847.66 174.51Q851.83 176.10 854.80 178.87Q857.78 181.63 859.42 185.38Q861.06 189.13 861.06 193.40L827.83 193.40Q828.02 197.38 829.02 200.99Q830.03 204.60 831.72 207.35Q833.41 210.09 835.68 211.71Q837.95 213.32 840.72 213.32Q843.11 213.32 845.43 212.50Q847.75 211.68 849.72 210.25Q851.69 208.82 853.14 206.92Q854.59 205.03 855.25 202.82L862.66 203.99Q861.53 207.88 859.07 211.31Q856.61 214.73 853.30 217.31Q850.00 219.88 846.11 221.36Q842.22 222.84 838.23 222.84ZM844.38 188.43Q844.19 186.32 843.46 184.56Q842.73 182.81 841.61 181.54Q840.48 180.28 838.98 179.60Q837.48 178.92 835.75 178.92Q834.39 178.92 833.08 179.60Q831.77 180.28 830.71 181.52Q829.66 182.76 828.93 184.52Q828.20 186.28 827.97 188.43Z"/><path d="M878.12 208.35Q879.39 212.29 881.76 214.47Q884.12 216.65 887.69 216.65Q889.19 216.65 890.43 216.28Q891.67 215.90 892.59 215.22Q893.50 214.54 893.99 213.65Q894.48 212.76 894.48 211.73Q894.48 210.04 893.85 208.71Q893.22 207.37 892.09 206.29Q890.97 205.21 889.42 204.30Q887.88 203.38 886.09 202.59Q883.23 201.32 880.42 199.85Q877.61 198.37 875.36 196.47Q873.11 194.57 871.73 192.13Q870.34 189.70 870.34 186.51Q870.34 183.46 871.61 180.96Q872.88 178.45 875.17 176.67Q877.47 174.88 880.66 173.90Q883.84 172.92 887.69 172.92Q891.20 172.92 893.92 173.57Q896.64 174.23 898.70 175.45Q900.77 176.67 902.36 178.42Q903.95 180.18 905.22 182.38L896.78 185.29Q896.12 182.99 895.19 181.73Q894.25 180.46 893.22 179.83Q892.19 179.20 891.20 179.06Q890.22 178.92 889.47 178.92Q888.11 178.92 886.89 179.22Q885.67 179.53 884.73 180.09Q883.80 180.65 883.23 181.47Q882.67 182.29 882.67 183.37Q882.67 184.73 883.38 185.95Q884.08 187.17 885.34 188.22Q886.61 189.28 888.32 190.21Q890.03 191.15 892.05 191.99Q895.09 193.26 897.98 194.81Q900.86 196.35 903.11 198.30Q905.36 200.24 906.72 202.61Q908.08 204.98 908.08 207.88Q908.08 211.03 907.05 213.74Q906.02 216.46 903.70 218.48Q901.38 220.49 897.70 221.67Q894.02 222.84 888.77 222.84Q884.27 222.84 881.15 221.81Q878.03 220.78 875.88 219.16Q873.72 217.54 872.31 215.53Q870.91 213.51 869.83 211.54Z"/><path d="M913.61 179.76L913.61 176.34L921.34 173.76L921.34 164.01L931.52 158.67L935.88 158.67L935.88 173.76L947.64 173.76L947.64 179.76L935.88 179.76L935.88 210.65Q935.88 212.10 936.62 213.18Q937.38 214.26 938.59 214.26Q939.34 214.26 940.26 213.74Q941.17 213.23 941.99 212.55Q942.81 211.87 943.45 211.17Q944.08 210.46 944.36 210.09L949.33 214.03Q948.11 215.90 946.66 217.52Q945.20 219.13 943.33 220.31Q941.45 221.48 939.02 222.16Q936.58 222.84 933.39 222.84Q930.34 222.84 928.09 221.97Q925.84 221.10 924.34 219.56Q922.84 218.01 922.09 215.85Q921.34 213.70 921.34 211.07L921.34 179.76Z"/><path d="M990.72 198.28L966.67 198.28Q967.09 206.99 971.31 212.06Q974.55 215.95 979.09 215.95Q981.91 215.95 984.20 214.38Q986.50 212.81 989.12 208.73L990.72 209.76Q987.16 217.03 982.84 220.05Q978.53 223.07 972.86 223.07Q963.11 223.07 958.09 215.57Q954.06 209.53 954.06 200.57Q954.06 189.60 959.99 183.11Q965.92 176.62 973.89 176.62Q980.55 176.62 985.45 182.08Q990.34 187.54 990.72 198.28ZM979.19 195.13Q979.19 187.59 978.37 184.78Q977.55 181.96 975.81 180.51Q974.83 179.67 973.19 179.67Q970.75 179.67 969.20 182.06Q966.44 186.23 966.44 193.49L966.44 195.13ZM986.08 156.04L970.56 172.31L966.53 172.31L971.97 156.04Z"/><path d="M998.08 216.32Q998.08 215.01 998.57 213.81Q999.06 212.62 999.95 211.75Q1000.84 210.88 1001.99 210.37Q1003.14 209.85 1004.50 209.85Q1005.86 209.85 1007.05 210.37Q1008.25 210.88 1009.12 211.75Q1009.98 212.62 1010.50 213.81Q1011.02 215.01 1011.02 216.32Q1011.02 217.68 1010.50 218.85Q1009.98 220.03 1009.12 220.87Q1008.25 221.71 1007.05 222.21Q1005.86 222.70 1004.50 222.70Q1003.14 222.70 1001.99 222.21Q1000.84 221.71 999.95 220.87Q999.06 220.03 998.57 218.85Q998.08 217.68 998.08 216.32Z"/></g></svg>