<svg xmlns="http://www.w3.org/2000/svg" viewBox="0 0 720.0 73.32" width="720.0" height="73.32"><g fill="#000000"><path d="M13.90 43.09Q13.90 46.62 14.97 49.43Q16.04 52.23 17.90 54.18Q19.77 56.12 22.31 57.15Q24.85 58.17 27.82 58.17Q29.59 58.17 31.24 57.49Q32.89 56.80 34.30 55.70Q35.71 54.59 36.83 53.21Q37.95 51.83 38.66 50.41L41.04 51.93Q40.00 53.63 38.58 55.19Q37.16 56.75 35.29 57.96Q33.43 59.17 31.08 59.88Q28.73 60.59 25.84 60.59Q21.65 60.59 18.23 59.19Q14.82 57.79 12.38 55.41Q9.94 53.02 8.61 49.83Q7.28 46.65 7.28 43.09Q7.28 40.73 7.88 38.48Q8.49 36.24 9.65 34.27Q10.80 32.30 12.47 30.66Q14.13 29.03 16.23 27.85Q18.32 26.67 20.81 26.02Q23.30 25.37 26.12 25.37Q28.81 25.37 31.08 26.09Q33.35 26.82 35.22 28.01Q37.08 29.20 38.54 30.77Q40.00 32.33 41.04 34.03L38.58 35.65Q36.47 31.57 33.86 29.67Q31.24 27.78 27.84 27.78Q24.92 27.78 22.38 28.85Q19.84 29.92 17.95 31.90Q16.06 33.88 14.98 36.71Q13.90 39.54 13.90 43.09Z"/><path d="M54.10 33.80L54.10 52.31Q54.10 53.27 54.54 54.14Q54.98 55.00 55.77 55.64Q56.56 56.27 57.59 56.64Q58.62 57.01 59.81 57.01Q60.57 57.01 61.45 56.68Q62.32 56.35 63.16 55.78Q64.00 55.20 64.72 54.43Q65.45 53.66 65.95 52.79L65.95 33.80L71.08 33.80L71.08 59.80L65.95 59.80L65.95 54.92Q65.27 56.04 64.24 57.03Q63.21 58.02 62.02 58.76Q60.82 59.50 59.55 59.93Q58.29 60.36 57.14 60.36Q55.44 60.36 53.94 59.72Q52.45 59.09 51.33 58.00Q50.21 56.91 49.56 55.43Q48.92 53.96 48.92 52.31L48.92 33.80Z"/><path d="M85.40 59.80L80.22 59.80L80.22 22.02L83.90 20.55L85.40 20.55Z"/><path d="M94.92 34.79L98.55 33.32L100.05 33.32L100.05 59.80L94.92 59.80ZM94.52 23.85Q94.52 23.24 94.75 22.70Q94.97 22.17 95.38 21.76Q95.79 21.36 96.32 21.13Q96.85 20.90 97.46 20.90Q98.07 20.90 98.61 21.13Q99.14 21.36 99.54 21.76Q99.95 22.17 100.18 22.70Q100.41 23.24 100.41 23.85Q100.41 24.46 100.18 24.99Q99.95 25.52 99.54 25.93Q99.14 26.34 98.61 26.56Q98.07 26.79 97.46 26.79Q96.85 26.79 96.32 26.56Q95.79 26.34 95.38 25.93Q94.97 25.52 94.75 24.99Q94.52 24.46 94.52 23.85Z"/><path d="M113.26 33.32L114.73 33.32L114.73 38.57Q117.09 35.93 119.63 34.63Q122.17 33.32 124.78 33.32Q126.15 33.32 127.33 33.93Q128.52 34.54 129.40 35.60Q130.29 36.67 130.80 38.10Q131.31 39.54 131.31 41.16L131.31 59.80L126.15 59.80L126.15 42.05Q126.15 40.76 125.85 39.78Q125.54 38.80 124.99 38.14Q124.43 37.48 123.68 37.14Q122.93 36.80 122.02 36.80Q121.20 36.80 120.29 37.08Q119.38 37.35 118.42 37.85Q117.47 38.34 116.53 39.03Q115.59 39.72 114.73 40.55L114.73 59.80L109.55 59.80L109.55 34.76Z"/><path d="M156.62 59.80Q155.61 59.29 154.91 58.37Q154.21 57.44 154.21 56.25Q153.30 56.93 152.42 57.67Q151.54 58.40 150.52 59.00Q149.49 59.60 148.23 59.98Q146.97 60.36 145.32 60.36Q143.80 60.36 142.57 59.86Q141.34 59.37 140.49 58.51Q139.64 57.64 139.17 56.45Q138.70 55.26 138.70 53.88Q138.70 52.21 139.36 50.86Q140.02 49.52 141.17 48.46Q142.33 47.41 143.85 46.58Q145.38 45.76 147.10 45.11Q148.83 44.46 150.66 43.96Q152.48 43.45 154.21 43.02L154.21 41.39Q154.21 39.61 153.96 38.40Q153.70 37.18 153.17 36.43Q152.64 35.68 151.81 35.36Q150.99 35.04 149.84 35.04Q148.75 35.04 147.84 35.48Q146.92 35.91 146.23 36.63Q145.53 37.35 145.08 38.33Q144.64 39.31 144.49 40.40L139.76 40.40Q139.97 38.73 140.92 37.41Q141.87 36.09 143.32 35.18Q144.77 34.28 146.61 33.80Q148.45 33.32 150.43 33.32Q152.97 33.32 154.69 33.81Q156.42 34.31 157.46 35.20Q158.50 36.09 158.95 37.37Q159.39 38.65 159.39 40.20L159.39 56.25Q159.39 57.44 160.09 58.37Q160.79 59.29 161.80 59.80ZM154.21 44.67Q153.09 45.02 151.90 45.48Q150.71 45.94 149.56 46.51Q148.42 47.08 147.38 47.74Q146.34 48.40 145.55 49.16Q144.77 49.92 144.31 50.76Q143.85 51.60 143.85 52.51Q143.85 53.48 144.21 54.33Q144.56 55.18 145.15 55.83Q145.73 56.47 146.49 56.84Q147.25 57.21 148.07 57.21Q148.93 57.21 149.72 56.98Q150.50 56.75 151.24 56.36Q151.98 55.97 152.71 55.46Q153.45 54.95 154.21 54.37Z"/><path d="M171.43 33.32L172.21 33.32L172.90 38.62Q173.51 37.46 174.42 36.49Q175.34 35.53 176.44 34.82Q177.54 34.10 178.78 33.71Q180.01 33.32 181.28 33.32Q182.42 33.32 183.52 33.62Q184.63 33.93 185.59 34.59L183.97 38.93Q183.46 38.37 182.90 38.03Q182.34 37.68 181.76 37.49Q181.18 37.30 180.57 37.25Q179.96 37.20 179.35 37.20Q178.38 37.20 177.46 37.48Q176.53 37.76 175.69 38.31Q174.85 38.85 174.14 39.70Q173.43 40.55 172.90 41.70L172.90 59.80L167.74 59.80L167.74 34.74Z"/><path d="M189.30 65.94Q189.61 66.07 189.97 66.27Q190.34 66.48 190.79 66.67Q191.23 66.86 191.76 66.99Q192.30 67.11 192.96 67.11Q193.77 67.11 194.48 66.66Q195.19 66.20 195.78 65.51Q196.36 64.83 196.82 64.01Q197.27 63.20 197.58 62.49L199.33 58.58L186.05 33.80L191.92 33.80L201.92 52.59L210.12 33.80L212.89 33.80L199.61 64.37Q198.77 66.27 197.69 67.67Q196.61 69.07 195.39 69.98Q194.18 70.90 192.88 71.34Q191.59 71.78 190.37 71.78Q189.45 71.78 188.59 71.51Q187.73 71.23 187.14 70.77Z"/><path d="M239.60 60.36Q236.96 60.36 234.64 59.37Q232.31 58.38 230.59 56.68Q228.86 54.98 227.86 52.68Q226.85 50.38 226.85 47.79Q226.85 44.67 227.77 42.01Q228.68 39.36 230.36 37.43Q232.03 35.50 234.38 34.41Q236.73 33.32 239.62 33.32Q242.16 33.32 244.30 34.22Q246.43 35.12 247.97 36.63Q249.50 38.14 250.35 40.12Q251.20 42.10 251.20 44.26L231.83 44.26Q231.83 46.88 232.50 49.11Q233.18 51.34 234.39 52.97Q235.61 54.59 237.29 55.51Q238.96 56.42 240.97 56.42Q242.65 56.42 244.20 55.88Q245.74 55.33 247.00 54.44Q248.26 53.55 249.15 52.41Q250.04 51.27 250.39 50.05L251.89 50.71Q251.33 52.72 250.09 54.47Q248.84 56.22 247.18 57.53Q245.52 58.84 243.56 59.60Q241.61 60.36 239.60 60.36ZM244.73 42.18Q244.73 40.71 244.21 39.44Q243.69 38.17 242.77 37.24Q241.86 36.31 240.64 35.78Q239.42 35.25 238.03 35.25Q236.86 35.25 235.79 35.77Q234.72 36.29 233.89 37.22Q233.05 38.14 232.50 39.41Q231.96 40.68 231.86 42.15Z"/><path d="M254.91 33.80L261.00 33.80L278.98 59.80L272.91 59.80ZM257.73 59.80L254.91 59.80L276.14 33.80L278.98 33.80Z"/><path d="M287.54 33.32L289.01 33.32L289.01 39.16Q289.80 38.17 290.75 37.13Q291.70 36.09 292.86 35.23Q294.01 34.38 295.41 33.85Q296.80 33.32 298.46 33.32Q300.77 33.32 302.64 34.28Q304.52 35.25 305.86 36.90Q307.19 38.55 307.91 40.77Q308.64 42.99 308.64 45.51Q308.64 48.73 307.75 51.46Q306.86 54.19 305.21 56.17Q303.56 58.15 301.20 59.25Q298.84 60.36 295.92 60.36Q294.85 60.36 293.92 60.24Q293.00 60.13 292.17 59.90Q291.35 59.67 290.57 59.32Q289.80 58.96 289.01 58.45L289.01 70.74L283.83 70.74L283.83 34.76ZM289.01 52.79Q289.01 53.96 289.52 54.99Q290.03 56.02 290.94 56.79Q291.85 57.57 293.12 58.01Q294.39 58.45 295.92 58.45Q297.36 58.45 298.65 57.72Q299.93 56.98 300.88 55.62Q301.83 54.26 302.38 52.39Q302.92 50.51 302.92 48.22Q302.92 45.35 302.42 43.21Q301.91 41.06 301.01 39.64Q300.11 38.22 298.87 37.51Q297.64 36.80 296.17 36.80Q295.05 36.80 294.02 37.14Q293.00 37.48 292.08 38.07Q291.17 38.65 290.39 39.41Q289.62 40.17 289.01 41.01Z"/><path d="M327.02 60.36Q324.38 60.36 322.06 59.37Q319.73 58.38 318.01 56.68Q316.28 54.98 315.28 52.68Q314.27 50.38 314.27 47.79Q314.27 44.67 315.19 42.01Q316.10 39.36 317.78 37.43Q319.45 35.50 321.80 34.41Q324.15 33.32 327.04 33.32Q329.58 33.32 331.72 34.22Q333.85 35.12 335.39 36.63Q336.92 38.14 337.77 40.12Q338.62 42.10 338.62 44.26L319.25 44.26Q319.25 46.88 319.92 49.11Q320.60 51.34 321.81 52.97Q323.03 54.59 324.71 55.51Q326.38 56.42 328.39 56.42Q330.07 56.42 331.62 55.88Q333.16 55.33 334.42 54.44Q335.68 53.55 336.57 52.41Q337.46 51.27 337.81 50.05L339.31 50.71Q338.75 52.72 337.51 54.47Q336.26 56.22 334.60 57.53Q332.94 58.84 330.98 59.60Q329.03 60.36 327.02 60.36ZM332.15 42.18Q332.15 40.71 331.63 39.44Q331.11 38.17 330.19 37.24Q329.28 36.31 328.06 35.78Q326.84 35.25 325.45 35.25Q324.28 35.25 323.21 35.77Q322.14 36.29 321.31 37.22Q320.47 38.14 319.92 39.41Q319.38 40.68 319.28 42.15Z"/><path d="M350.33 33.32L351.12 33.32L351.80 38.62Q352.41 37.46 353.32 36.49Q354.24 35.53 355.34 34.82Q356.45 34.10 357.68 33.71Q358.91 33.32 360.18 33.32Q361.32 33.32 362.43 33.62Q363.53 33.93 364.50 34.59L362.87 38.93Q362.36 38.37 361.80 38.03Q361.25 37.68 360.66 37.49Q360.08 37.30 359.47 37.25Q358.86 37.20 358.25 37.20Q357.29 37.20 356.36 37.48Q355.43 37.76 354.59 38.31Q353.76 38.85 353.04 39.70Q352.33 40.55 351.80 41.70L351.80 59.80L346.65 59.80L346.65 34.74Z"/><path d="M369.52 34.79L373.15 33.32L374.65 33.32L374.65 59.80L369.52 59.80ZM369.12 23.85Q369.12 23.24 369.35 22.70Q369.57 22.17 369.98 21.76Q370.39 21.36 370.92 21.13Q371.45 20.90 372.06 20.90Q372.67 20.90 373.21 21.13Q373.74 21.36 374.14 21.76Q374.55 22.17 374.78 22.70Q375.01 23.24 375.01 23.85Q375.01 24.46 374.78 24.99Q374.55 25.52 374.14 25.93Q373.74 26.34 373.21 26.56Q372.67 26.79 372.06 26.79Q371.45 26.79 370.92 26.56Q370.39 26.34 369.98 25.93Q369.57 25.52 369.35 24.99Q369.12 24.46 369.12 23.85Z"/><path d="M395.14 60.36Q392.50 60.36 390.18 59.37Q387.86 58.38 386.13 56.68Q384.40 54.98 383.40 52.68Q382.40 50.38 382.40 47.79Q382.40 44.67 383.31 42.01Q384.22 39.36 385.90 37.43Q387.58 35.50 389.92 34.41Q392.27 33.32 395.17 33.32Q397.71 33.32 399.84 34.22Q401.97 35.12 403.51 36.63Q405.04 38.14 405.90 40.12Q406.75 42.10 406.75 44.26L387.37 44.26Q387.37 46.88 388.05 49.11Q388.72 51.34 389.94 52.97Q391.16 54.59 392.83 55.51Q394.51 56.42 396.51 56.42Q398.19 56.42 399.74 55.88Q401.29 55.33 402.54 54.44Q403.80 53.55 404.69 52.41Q405.58 51.27 405.93 50.05L407.43 50.71Q406.87 52.72 405.63 54.47Q404.38 56.22 402.72 57.53Q401.06 58.84 399.10 59.60Q397.15 60.36 395.14 60.36ZM400.27 42.18Q400.27 40.71 399.75 39.44Q399.23 38.17 398.32 37.24Q397.40 36.31 396.18 35.78Q394.96 35.25 393.57 35.25Q392.40 35.25 391.33 35.77Q390.27 36.29 389.43 37.22Q388.59 38.14 388.05 39.41Q387.50 40.68 387.40 42.15Z"/><path d="M418.48 33.32L419.95 33.32L419.95 38.57Q422.31 35.93 424.85 34.63Q427.39 33.32 430.00 33.32Q431.38 33.32 432.56 33.93Q433.74 34.54 434.62 35.60Q435.51 36.67 436.02 38.10Q436.53 39.54 436.53 41.16L436.53 59.80L431.38 59.80L431.38 42.05Q431.38 40.76 431.07 39.78Q430.77 38.80 430.21 38.14Q429.65 37.48 428.90 37.14Q428.15 36.80 427.24 36.80Q426.42 36.80 425.51 37.08Q424.60 37.35 423.64 37.85Q422.69 38.34 421.75 39.03Q420.81 39.72 419.95 40.55L419.95 59.80L414.77 59.80L414.77 34.76Z"/><path d="M462.73 41.11Q462.45 40.10 461.97 39.06Q461.49 38.01 460.74 37.16Q459.99 36.31 458.97 35.78Q457.96 35.25 456.59 35.25Q454.84 35.25 453.44 35.96Q452.04 36.67 451.08 37.89Q450.11 39.11 449.61 40.73Q449.10 42.36 449.10 44.18Q449.10 46.67 449.75 48.89Q450.39 51.12 451.57 52.79Q452.75 54.47 454.42 55.45Q456.08 56.42 458.14 56.42Q459.94 56.42 461.27 55.85Q462.61 55.28 463.58 54.32Q464.56 53.35 465.27 52.07Q465.98 50.79 466.54 49.36L468.09 50.00Q467.43 52.44 466.31 54.37Q465.20 56.30 463.68 57.63Q462.17 58.96 460.28 59.66Q458.39 60.36 456.18 60.36Q453.62 60.36 451.38 59.36Q449.15 58.35 447.50 56.60Q445.85 54.85 444.88 52.51Q443.92 50.18 443.92 47.51Q443.92 45.56 444.40 43.74Q444.88 41.92 445.76 40.35Q446.63 38.78 447.87 37.48Q449.10 36.19 450.60 35.26Q452.09 34.33 453.81 33.83Q455.52 33.32 457.38 33.32Q458.92 33.32 460.35 33.67Q461.77 34.03 462.96 34.68Q464.15 35.32 465.07 36.28Q465.98 37.23 466.49 38.40Z"/><path d="M486.40 60.36Q483.76 60.36 481.43 59.37Q479.11 58.38 477.38 56.68Q475.66 54.98 474.65 52.68Q473.65 50.38 473.65 47.79Q473.65 44.67 474.56 42.01Q475.48 39.36 477.15 37.43Q478.83 35.50 481.18 34.41Q483.53 33.32 486.42 33.32Q488.96 33.32 491.09 34.22Q493.23 35.12 494.76 36.63Q496.30 38.14 497.15 40.12Q498.00 42.10 498.00 44.26L478.63 44.26Q478.63 46.88 479.30 49.11Q479.97 51.34 481.19 52.97Q482.41 54.59 484.09 55.51Q485.76 56.42 487.77 56.42Q489.44 56.42 490.99 55.88Q492.54 55.33 493.80 54.44Q495.05 53.55 495.94 52.41Q496.83 51.27 497.19 50.05L498.69 50.71Q498.13 52.72 496.88 54.47Q495.64 56.22 493.98 57.53Q492.31 58.84 490.36 59.60Q488.40 60.36 486.40 60.36ZM491.53 42.18Q491.53 40.71 491.00 39.44Q490.48 38.17 489.57 37.24Q488.66 36.31 487.44 35.78Q486.22 35.25 484.82 35.25Q483.65 35.25 482.59 35.77Q481.52 36.29 480.68 37.22Q479.85 38.14 479.30 39.41Q478.75 40.68 478.65 42.15Z"/></g></svg>